<?xml version="1.0" encoding="utf-8"?>
<!-- Svg Vector Icons : http://www.onlinewebfonts.com/icon -->
<!DOCTYPE svg PUBLIC "-//W3C//DTD SVG 1.1//EN" "http://www.w3.org/Graphics/SVG/1.1/DTD/svg11.dtd">
<svg version="1.1" xmlns="http://www.w3.org/2000/svg" xmlns:xlink="http://www.w3.org/1999/xlink" x="0px" y="0px" viewBox="0 0 256 256" enable-background="new 0 0 256 256" xml:space="preserve">
<metadata> Svg Vector Icons : http://www.onlinewebfonts.com/icon </metadata>
<g><g><g><path fill="#000000" d="M151.6,16.3c0,6-12.7,22.4-26.8,36.5c-27.6,26.9-33.6,52.2-14.9,67.1c12.7,10.4,14.2,5.2,3.7-14.9c-6.7-11.9-3-20.1,19.4-44c16.4-18.6,25.4-35.1,23.1-43.3C153.1,8.1,152.4,7.3,151.6,16.3z"/><path fill="#000000" d="M144.9,67.7C127,84.9,124,105,137.5,118.5c11.9,11.9,1.5,20.9-30.6,27.6c-17.2,3.7-23.1,3-20.1-3c3-4.5,0.8-8.2-6-8.2c-6,0-12.7,3-15.7,6.7c-6.7,11.9,26.1,17.2,70.1,11.2c24.6-3,34.3-6.7,24.6-8.9c-13.4-2.2-15.7-4.5-9-12.7c6-7.5,6-14.2,0.7-25.4c-11.2-19.4-10.4-20.1,8.2-38c8.9-8.2,12.7-14.9,8.9-14.9C164.3,52.8,153.9,59.5,144.9,67.7z"/><path fill="#000000" d="M200.1,138.6c3,6.7-1.5,18.6-9,28.3L177,182.6l18.6-11.9c19.4-11.9,25.4-35.8,9-41.8C198.6,127.4,197.1,130.4,200.1,138.6z"/><path fill="#000000" d="M83.8,173.7c0,8.2,61.2,6.7,74.6-1.5c7.5-5.2-2.2-6.7-31.3-5.2C103.1,167.7,83.8,170.7,83.8,173.7z"/><path fill="#000000" d="M83.8,193c0,10.4,33.6,15.7,61.9,9c23.9-6,23.9-6-7.5-6.7c-17.2-0.7-35.8-3-42.5-5.2C89,187.8,83.8,188.6,83.8,193z"/><path fill="#000000" d="M46.5,209.5c-6,3.7-8.2,9.7-4.5,12.7c8.2,8.2,132,6.7,147.7-2.2c8.2-4.5-11.9-6-58.9-3.7c-50.7,1.5-69.4,0-66.4-6C71.1,200.5,61.4,199.8,46.5,209.5z"/><path fill="#000000" d="M201.6,228.1c-2.2,2.2-25.4,7.5-51.5,11.2l-47.7,6.7l46.2-2.2c24.6-1.5,51.5-6.7,59.7-11.2c7.5-4.5,9.7-8.2,5.2-8.2C209.1,224.4,203.8,225.9,201.6,228.1z"/></g></g></g>
</svg>